# xmcd CD database file
#
# Track frame offsets:
#	180
#	21942
#	37751
#	55164
#	70145
#	87897
#	103993
#	122557
#	139619
#	158610
#	175706
#	188931
#	212594
#	228827
#	248136
#	267027
#
# Disc length: 3778 seconds
#
# Revision: 1
# Processed by: cddbd v1.5.1PL0 Copyright (c) Steve Scherf et al.
# Submitted via: CDex 1.51
#
DISCID=cb0ec010
DTITLE=Bandari - Reflections CD3
DYEAR=2000
DGENRE=New Age
TTITLE0=Scottish Hills
TTITLE1=Blue Sky
TTITLE2=The Daylight
TTITLE3=Birds Over The Rainbow
TTITLE4=Tim's Lullaby
TTITLE5=Nightflower
TTITLE6=Fly Away
TTITLE7=Beyond The Clouds
TTITLE8=Angeles
TTITLE9=Far From The Earth
TTITLE10=Your Smile
TTITLE11=Indian Visions
TTITLE12=Jupiter
TTITLE13=Springtime
TTITLE14=Melody of Hope
TTITLE15=Waves
EXTD=YEAR: 2000
EXTT0=
EXTT1=
EXTT2=
EXTT3=
EXTT4=
EXTT5=
EXTT6=
EXTT7=
EXTT8=
EXTT9=
EXTT10=
EXTT11=
EXTT12=
EXTT13=
EXTT14=
EXTT15=
PLAYORDER=
